<svg class="diagram-root" style="background: #f5f6f6" xmlns="http://www.w3.org/2000/svg" xmlns:xlink="http://www.w3.org/1999/xlink"><style>.diagram-root { font-family: "Helvetica Neue", sans-serif; font-size: 12px; } .t { overflow: visible; } .t-bg { y: 40; fill: #fff;   } .th { fill: #005aa0;   } .tht { fill: #fff; font-size: 14px;  } .tf { fill: #323c46; overflow: visible; } .tf.pk { fill: #005aa0; font-weight: bold; } .tf.fk { font-weight: bold; } .ty { fill: #adb1b5; font-weight: normal; text-anchor: end; } .r { fill: transparent; stroke: #c3c3c3; stroke-width: 1; } .l { stroke: 1; } .i { fill: #c2c7ce; stroke: #c2c7ce; } .i.ix { fill: #afb3b6; stroke: #000; } .fa { fill: transparent; overflow: visible; } .fa .bg.hover { fill: #f7f7f7; } .c { cy: 12; r: 4; stroke: #d2d2dc; fill: #d2d2dc; } .hr { fill: transparent; stroke: #323c46; stroke-opacity: 0.035; stroke-width: 13; } .dc { stroke: #fa5a3c; fill: #fa5a3c; } .x { stroke: white; stroke-width: 1; } .hl .th { fill: #1b9bff; } .hl .tht {  } .fhl .bg { fill: #e7f4ff; } .fhls .bg {  } .r.hl { stroke: #1b9bff; } .dim { opacity: 0.25; }</style><g class="drawing-wrapper" transform="translate(100.49666666666667, 187.5) scale(1,1)"><g class="rs"><path d="M 122.51 268.66999999999996 m -1, 0 a 1,1 0 1,0 2,0 a 1,1 0 1,0 -2,0 M 122.51 268.66999999999996 m -0.5, 0 a 0.5,0.5 0 1,0 1,0 a 0.5,0.5 0 1,0 -1,0  M122.51 268.66999999999996 L122.51 268.66999999999996 134.51 268.66999999999996 M128.51 274.66999999999996 L128.51 274.66999999999996 128.51 262.66999999999996 M134.51 268.66999999999996 Q 176.51 268.66999999999996, 218.51 196.21 T 302.51 123.74000000000001 M 314.51 123.74000000000001 m -1, 0 a 1,1 0 1,0 2,0 a 1,1 0 1,0 -2,0 M 314.51 123.74000000000001 m -0.5, 0 a 0.5,0.5 0 1,0 1,0 a 0.5,0.5 0 1,0 -1,0  M314.51 123.74000000000001 L314.51 123.74000000000001 302.51 123.74000000000001 M308.51 129.74 L308.51 129.74 308.51 117.74000000000001" id="h1957956416" class="r"></path><path d="M 614.48 222.93 m -1, 0 a 1,1 0 1,0 2,0 a 1,1 0 1,0 -2,0 M 614.48 222.93 m -0.5, 0 a 0.5,0.5 0 1,0 1,0 a 0.5,0.5 0 1,0 -1,0  M614.48 222.93 L614.48 222.93 602.48 222.93 M608.48 228.93 L608.48 228.93 608.48 216.93 M602.48 222.93 Q 578.26 222.93, 554.04 173.34 T 505.59 123.74000000000001 M 493.59 123.74000000000001 m -1, 0 a 1,1 0 1,0 2,0 a 1,1 0 1,0 -2,0 M 493.59 123.74000000000001 m -0.5, 0 a 0.5,0.5 0 1,0 1,0 a 0.5,0.5 0 1,0 -1,0  M493.59 123.74000000000001 L493.59 123.74000000000001 505.59 123.74000000000001 M499.59 129.74 L499.59 129.74 499.59 117.74000000000001" id="h3079508982" class="r"></path><path d="M 135.25 -69.86000000000001 m -1, 0 a 1,1 0 1,0 2,0 a 1,1 0 1,0 -2,0 M 135.25 -69.86000000000001 m -0.5, 0 a 0.5,0.5 0 1,0 1,0 a 0.5,0.5 0 1,0 -1,0  M135.25 -69.86000000000001 L135.25 -69.86000000000001 147.25 -69.86000000000001 M141.25 -63.860000000000014 L141.25 -63.860000000000014 141.25 -75.86000000000001 M147.25 -69.86000000000001 Q 186.07 -69.86000000000001, 224.88 26.94 T 302.51 123.74000000000001 M 314.51 123.74000000000001 m -1, 0 a 1,1 0 1,0 2,0 a 1,1 0 1,0 -2,0 M 314.51 123.74000000000001 m -0.5, 0 a 0.5,0.5 0 1,0 1,0 a 0.5,0.5 0 1,0 -1,0  M314.51 123.74000000000001 L314.51 123.74000000000001 302.51 123.74000000000001 M308.51 129.74 L308.51 129.74 308.51 117.74000000000001" id="h3504220653" class="r"></path><path d="M 586.31 -50.16 m -1, 0 a 1,1 0 1,0 2,0 a 1,1 0 1,0 -2,0 M 586.31 -50.16 m -0.5, 0 a 0.5,0.5 0 1,0 1,0 a 0.5,0.5 0 1,0 -1,0  M586.31 -50.16 L586.31 -50.16 574.31 -50.16 M580.31 -44.16 L580.31 -44.16 580.31 -56.16 M574.31 -50.16 Q 557.13 -50.16, 539.95 36.79 T 505.59 123.74000000000001 M 493.59 123.74000000000001 m -1, 0 a 1,1 0 1,0 2,0 a 1,1 0 1,0 -2,0 M 493.59 123.74000000000001 m -0.5, 0 a 0.5,0.5 0 1,0 1,0 a 0.5,0.5 0 1,0 -1,0  M493.59 123.74000000000001 L493.59 123.74000000000001 505.59 123.74000000000001 M499.59 129.74 L499.59 129.74 499.59 117.74000000000001" id="h4062798758" class="r"></path><path d="M 464.81 -75.5 m -1, 0 a 1,1 0 1,0 2,0 a 1,1 0 1,0 -2,0 M 464.81 -75.5 m -0.5, 0 a 0.5,0.5 0 1,0 1,0 a 0.5,0.5 0 1,0 -1,0  M464.81 -75.5 L464.81 -75.5 476.81 -75.5 M 464.81 -69.5 m -1, 0 a 1,1 0 1,0 2,0 a 1,1 0 1,0 -2,0 M 464.81 -69.5 m -0.5, 0 a 0.5,0.5 0 1,0 1,0 a 0.5,0.5 0 1,0 -1,0  M464.81 -69.5 L464.81 -69.5 471.81 -75.5 464.81 -81.5 M 464.81 -81.5 m -1, 0 a 1,1 0 1,0 2,0 a 1,1 0 1,0 -2,0 M 464.81 -81.5 m -0.5, 0 a 0.5,0.5 0 1,0 1,0 a 0.5,0.5 0 1,0 -1,0  M476.81 -75.5 Q 501.18 -75.5, 525.56 -50.33 T 574.31 -25.159999999999997 M 586.31 -25.159999999999997 m -1, 0 a 1,1 0 1,0 2,0 a 1,1 0 1,0 -2,0 M 586.31 -25.159999999999997 m -0.5, 0 a 0.5,0.5 0 1,0 1,0 a 0.5,0.5 0 1,0 -1,0  M586.31 -25.159999999999997 L586.31 -25.159999999999997 574.31 -25.159999999999997 M580.31 -19.159999999999997 L580.31 -19.159999999999997 580.31 -31.159999999999997" id="h1671023572" class="r"></path><path d="M 331.67 386.17 m -1, 0 a 1,1 0 1,0 2,0 a 1,1 0 1,0 -2,0 M 331.67 386.17 m -0.5, 0 a 0.5,0.5 0 1,0 1,0 a 0.5,0.5 0 1,0 -1,0  M331.67 386.17 L331.67 386.17 319.67 386.17 M 331.67 392.17 m -1, 0 a 1,1 0 1,0 2,0 a 1,1 0 1,0 -2,0 M 331.67 392.17 m -0.5, 0 a 0.5,0.5 0 1,0 1,0 a 0.5,0.5 0 1,0 -1,0  M331.67 392.17 L331.67 392.17 324.67 386.17 331.67 380.17 M 331.67 380.17 m -1, 0 a 1,1 0 1,0 2,0 a 1,1 0 1,0 -2,0 M 331.67 380.17 m -0.5, 0 a 0.5,0.5 0 1,0 1,0 a 0.5,0.5 0 1,0 -1,0  M319.67 386.17 Q 273.38 386.17, 227.09 352.42 T 134.51 318.66999999999996 M 122.51 318.66999999999996 m -1, 0 a 1,1 0 1,0 2,0 a 1,1 0 1,0 -2,0 M 122.51 318.66999999999996 m -0.5, 0 a 0.5,0.5 0 1,0 1,0 a 0.5,0.5 0 1,0 -1,0  M122.51 318.66999999999996 L122.51 318.66999999999996 134.51 318.66999999999996 M128.51 324.66999999999996 L128.51 324.66999999999996 128.51 312.66999999999996" id="h832616412" class="r"></path></g><g class="hrs"></g><g class="ts"><svg width="165.64" height="100" x="299.17" y="-157.5" id="h3586902048" class="t"><rect height="40" width="165.64" class="th"></rect><text x="13" y="25" class="tht">PlasDB</text><rect height="60" width="165.64" class="t-bg"></rect><text x="13" y="61" class="tf pk">pDBid<tspan x="152.64" class="ty">int</tspan></text><path d="M7,14A2,2 0 0,1 5,12A2,2 0 0,1 7,10A2,2 0 0,1 9,12A2,2 0 0,1 7,14M12.65,10C11.83,7.67 9.61,6 7, 6A6, 6 0 0, 0 1, 12A6, 6 0 0, 0 7, 18C9.61, 18 11.83, 16.33 12.65, 14H17V18H21V14H23V10H12.65Z" class="i pk" transform="translate(118.60002197265624, 48) scale(0.65)"></path><text x="13" y="86" class="tf fk">DBNmae<tspan x="152.64" class="ty">varchar(300)</tspan></text></svg><svg width="156.08" height="100" x="331.67" y="304.17" id="h1655115133" class="t"><rect height="40" width="156.08" class="th"></rect><text x="13" y="25" class="tht">mlstOrganism</text><rect height="60" width="156.08" class="t-bg"></rect><text x="13" y="61" class="tf pk">oid<tspan x="143.08" class="ty">int</tspan></text><path d="M7,14A2,2 0 0,1 5,12A2,2 0 0,1 7,10A2,2 0 0,1 9,12A2,2 0 0,1 7,14M12.65,10C11.83,7.67 9.61,6 7, 6A6, 6 0 0, 0 1, 12A6, 6 0 0, 0 7, 18C9.61, 18 11.83, 16.33 12.65, 14H17V18H21V14H23V10H12.65Z" class="i pk" transform="translate(109.04002197265626, 48) scale(0.65)"></path><text x="13" y="86" class="tf fk">oName<tspan x="143.08" class="ty">varchar(300)</tspan></text></svg><svg width="171.68" height="175" x="-49.17" y="186.67" id="h3890151859" class="t"><rect height="40" width="171.68" class="th"></rect><text x="13" y="25" class="tht">MLST</text><rect height="135" width="171.68" class="t-bg"></rect><text x="13" y="61" class="tf">mId<tspan x="158.68" class="ty">int</tspan></text><path d="M22,18V22H18V19H15V16H12L9.74,13.74C9.19,13.91 8.61,14 8,14A6,6 0 0,1 2,8A6,6 0 0,1 8,2A6,6 0 0,1 14,8C14,8.61 13.91, 9.19 13.74, 9.74L22, 18M7, 5A2, 2 0 0, 0 5, 7A2, 2 0 0, 0 7, 9A2, 2 0 0, 0 9, 7A2, 2 0 0, 0 7, 5Z" class="i uq" transform="translate(128.64002197265626, 50.5) scale(0.5)"></path><text x="13" y="86" class="tf pk">SRAID<tspan x="158.68" class="ty">varchar(200)</tspan></text><path d="M7,14A2,2 0 0,1 5,12A2,2 0 0,1 7,10A2,2 0 0,1 9,12A2,2 0 0,1 7,14M12.65,10C11.83,7.67 9.61,6 7, 6A6, 6 0 0, 0 1, 12A6, 6 0 0, 0 7, 18C9.61, 18 11.83, 16.33 12.65, 14H17V18H21V14H23V10H12.65Z" class="i pk" transform="translate(67.8920819091797, 73) scale(0.65)"></path><text x="13" y="111" class="tf">Profile<tspan x="158.68" class="ty">varchar(300)</tspan></text><text x="13" y="136" class="tf fk">Organism<tspan x="158.68" class="ty">varchar(300)</tspan></text><text x="13" y="161" class="tf">SequenceType<tspan x="158.68" class="ty">int</tspan></text></svg><svg width="171.68" height="125" x="614.48" y="140.93" id="h595093372" class="t"><rect height="40" width="171.68" class="th"></rect><text x="13" y="25" class="tht">Sistr</text><rect height="85" width="171.68" class="t-bg"></rect><text x="13" y="61" class="tf">sId<tspan x="158.68" class="ty">int</tspan></text><path d="M22,18V22H18V19H15V16H12L9.74,13.74C9.19,13.91 8.61,14 8,14A6,6 0 0,1 2,8A6,6 0 0,1 8,2A6,6 0 0,1 14,8C14,8.61 13.91, 9.19 13.74, 9.74L22, 18M7, 5A2, 2 0 0, 0 5, 7A2, 2 0 0, 0 7, 9A2, 2 0 0, 0 9, 7A2, 2 0 0, 0 7, 5Z" class="i uq" transform="translate(128.64002197265626, 50.5) scale(0.5)"></path><text x="13" y="86" class="tf pk">SRAID<tspan x="158.68" class="ty">varchar(200)</tspan></text><path d="M7,14A2,2 0 0,1 5,12A2,2 0 0,1 7,10A2,2 0 0,1 9,12A2,2 0 0,1 7,14M12.65,10C11.83,7.67 9.61,6 7, 6A6, 6 0 0, 0 1, 12A6, 6 0 0, 0 7, 18C9.61, 18 11.83, 16.33 12.65, 14H17V18H21V14H23V10H12.65Z" class="i pk" transform="translate(67.8920819091797, 73) scale(0.65)"></path><text x="13" y="111" class="tf">Serovar<tspan x="158.68" class="ty">varchar(300)</tspan></text></svg><svg width="213.75" height="175" x="-78.5" y="-151.86" id="h2936835792" class="t"><rect height="40" width="213.75" class="th"></rect><text x="13" y="25" class="tht">Amrfinder</text><rect height="135" width="213.75" class="t-bg"></rect><text x="13" y="61" class="tf">aId<tspan x="200.75" class="ty">int</tspan></text><text x="13" y="86" class="tf pk">SRAID<tspan x="200.75" class="ty">varchar(200)</tspan></text><path d="M7,14A2,2 0 0,1 5,12A2,2 0 0,1 7,10A2,2 0 0,1 9,12A2,2 0 0,1 7,14M12.65,10C11.83,7.67 9.61,6 7, 6A6, 6 0 0, 0 1, 12A6, 6 0 0, 0 7, 18C9.61, 18 11.83, 16.33 12.65, 14H17V18H21V14H23V10H12.65Z" class="i pk" transform="translate(109.96208190917969, 73) scale(0.65)"></path><text x="13" y="111" class="tf">GeneSymbol<tspan x="200.75" class="ty">varchar(300)</tspan></text><text x="13" y="136" class="tf">ElementSubtype<tspan x="200.75" class="ty">varchaar(300)</tspan></text><text x="13" y="161" class="tf">Method<tspan x="200.75" class="ty">varchar(200)</tspan></text></svg><svg width="171.68" height="150" x="586.31" y="-132.16" id="h4002701245" class="t"><rect height="40" width="171.68" class="th"></rect><text x="13" y="25" class="tht">Plasmidfinder</text><rect height="110" width="171.68" class="t-bg"></rect><text x="13" y="61" class="tf">PlasId<tspan x="158.68" class="ty">int</tspan></text><path d="M22,18V22H18V19H15V16H12L9.74,13.74C9.19,13.91 8.61,14 8,14A6,6 0 0,1 2,8A6,6 0 0,1 8,2A6,6 0 0,1 14,8C14,8.61 13.91, 9.19 13.74, 9.74L22, 18M7, 5A2, 2 0 0, 0 5, 7A2, 2 0 0, 0 7, 9A2, 2 0 0, 0 9, 7A2, 2 0 0, 0 7, 5Z" class="i uq" transform="translate(128.64002197265626, 50.5) scale(0.5)"></path><text x="13" y="86" class="tf pk">SRAID<tspan x="158.68" class="ty">varchar(200)</tspan></text><path d="M7,14A2,2 0 0,1 5,12A2,2 0 0,1 7,10A2,2 0 0,1 9,12A2,2 0 0,1 7,14M12.65,10C11.83,7.67 9.61,6 7, 6A6, 6 0 0, 0 1, 12A6, 6 0 0, 0 7, 18C9.61, 18 11.83, 16.33 12.65, 14H17V18H21V14H23V10H12.65Z" class="i pk" transform="translate(67.8920819091797, 73) scale(0.65)"></path><text x="13" y="111" class="tf fk">pDB<tspan x="158.68" class="ty">varchar(300)</tspan></text><text x="13" y="136" class="tf">Plasmid<tspan x="158.68" class="ty">varchar(200)</tspan></text></svg><svg width="179.08" height="125" x="314.51" y="41.74" id="h283435422" class="t"><rect height="40" width="179.08" class="th"></rect><text x="13" y="25" class="tht">SRA</text><rect height="85" width="179.08" class="t-bg"></rect><text x="13" y="61" class="tf pk">Id<tspan x="166.08" class="ty">int</tspan></text><path d="M7,14A2,2 0 0,1 5,12A2,2 0 0,1 7,10A2,2 0 0,1 9,12A2,2 0 0,1 7,14M12.65,10C11.83,7.67 9.61,6 7, 6A6, 6 0 0, 0 1, 12A6, 6 0 0, 0 7, 18C9.61, 18 11.83, 16.33 12.65, 14H17V18H21V14H23V10H12.65Z" class="i pk" transform="translate(132.04002197265626, 48) scale(0.65)"></path><text x="13" y="86" class="tf fk">Genome<tspan x="166.08" class="ty">varchar(200)</tspan></text><path d="M22,18V22H18V19H15V16H12L9.74,13.74C9.19,13.91 8.61,14 8,14A6,6 0 0,1 2,8A6,6 0 0,1 8,2A6,6 0 0,1 14,8C14,8.61 13.91, 9.19 13.74, 9.74L22, 18M7, 5A2, 2 0 0, 0 5, 7A2, 2 0 0, 0 7, 9A2, 2 0 0, 0 9, 7A2, 2 0 0, 0 7, 5Z" class="i uq" transform="translate(79.2920819091797, 75.5) scale(0.5)"></path><text x="13" y="111" class="tf">Seq<tspan x="166.08" class="ty">varchar(300)</tspan></text></svg></g></g><text class="qdbd-link" x="10" y="20">www.quickdatabasediagrams.com</text></svg>